<svg width="1024" height="1024" viewBox="0 0 1024 1024" xmlns="http://www.w3.org/2000/svg">
  <defs>
    <linearGradient id="bg" x1="0%" y1="0%" x2="0%" y2="100%">
      <stop offset="0%" style="stop-color:#1e40af;stop-opacity:1" />
      <stop offset="100%" style="stop-color:#1e3a8a;stop-opacity:1" />
    </linearGradient>
  </defs>
  
  <!-- Background -->
  <rect width="1024" height="1024" fill="url(#bg)" rx="200"/>
  
  <!-- Menorah - correct upward arms -->
  <g transform="translate(512, 200)">
    <!-- Base -->
    <rect x="-100" y="600" width="200" height="50" fill="#fbbf24" rx="10"/>
    <rect x="-70" y="550" width="140" height="60" fill="#fbbf24" rx="8"/>
    
    <!-- Central column -->
    <rect x="-25" y="50" width="50" height="500" fill="#fbbf24" rx="8"/>
    
    <!-- Arms going UP then DOWN (like upside-down U) -->
    <!-- Right side -->
    <path d="M 25,450 L 25,350 Q 25,250 125,250 Q 125,250 125,350 L 125,450" 
          stroke="#fbbf24" stroke-width="40" fill="none" stroke-linecap="round"/>
    <path d="M 25,450 L 25,300 Q 25,180 185,180 Q 185,180 185,300 L 185,450" 
          stroke="#fbbf24" stroke-width="40" fill="none" stroke-linecap="round"/>
    <path d="M 25,450 L 25,250 Q 25,110 245,110 Q 245,110 245,250 L 245,450" 
          stroke="#fbbf24" stroke-width="40" fill="none" stroke-linecap="round"/>
    
    <!-- Left side -->
    <path d="M -25,450 L -25,350 Q -25,250 -125,250 Q -125,250 -125,350 L -125,450" 
          stroke="#fbbf24" stroke-width="40" fill="none" stroke-linecap="round"/>
    <path d="M -25,450 L -25,300 Q -25,180 -185,180 Q -185,180 -185,300 L -185,450" 
          stroke="#fbbf24" stroke-width="40" fill="none" stroke-linecap="round"/>
    <path d="M -25,450 L -25,250 Q -25,110 -245,110 Q -245,110 -245,250 L -245,450" 
          stroke="#fbbf24" stroke-width="40" fill="none" stroke-linecap="round"/>
    
    <!-- Candles -->
    <ellipse cx="0" cy="40" rx="30" ry="12" fill="#f59e0b"/>
    <ellipse cx="125" cy="440" rx="30" ry="12" fill="#f59e0b"/>
    <ellipse cx="185" cy="440" rx="30" ry="12" fill="#f59e0b"/>
    <ellipse cx="245" cy="440" rx="30" ry="12" fill="#f59e0b"/>
    <ellipse cx="-125" cy="440" rx="30" ry="12" fill="#f59e0b"/>
    <ellipse cx="-185" cy="440" rx="30" ry="12" fill="#f59e0b"/>
    <ellipse cx="-245" cy="440" rx="30" ry="12" fill="#f59e0b"/>
    
    <!-- Flames -->
    <g opacity="0.95">
      <!-- Center -->
      <ellipse cx="0" cy="0" rx="22" ry="42" fill="#fef3c7"/>
      <ellipse cx="0" cy="-5" rx="16" ry="32" fill="#fbbf24"/>
      
      <!-- Right -->
      <ellipse cx="125" cy="400" rx="20" ry="38" fill="#fef3c7"/>
      <ellipse cx="125" cy="395" rx="14" ry="28" fill="#fbbf24"/>
      
      <ellipse cx="185" cy="400" rx="20" ry="38" fill="#fef3c7"/>
      <ellipse cx="185" cy="395" rx="14" ry="28" fill="#fbbf24"/>
      
      <ellipse cx="245" cy="400" rx="20" ry="38" fill="#fef3c7"/>
      <ellipse cx="245" cy="395" rx="14" ry="28" fill="#fbbf24"/>
      
      <!-- Left -->
      <ellipse cx="-125" cy="400" rx="20" ry="38" fill="#fef3c7"/>
      <ellipse cx="-125" cy="395" rx="14" ry="28" fill="#fbbf24"/>
      
      <ellipse cx="-185" cy="400" rx="20" ry="38" fill="#fef3c7"/>
      <ellipse cx="-185" cy="395" rx="14" ry="28" fill="#fbbf24"/>
      
      <ellipse cx="-245" cy="400" rx="20" ry="38" fill="#fef3c7"/>
      <ellipse cx="-245" cy="395" rx="14" ry="28" fill="#fbbf24"/>
    </g>
  </g>
</svg>
